<?xml version="1.0" encoding="UTF-8"?>
<svg version="1.1" xmlns="http://www.w3.org/2000/svg" width="1143" height="393">
<path d="M0 0 C377.19 0 754.38 0 1143 0 C1143 129.69 1143 259.38 1143 393 C765.81 393 388.62 393 0 393 C0 263.31 0 133.62 0 0 Z " fill="#FDFDFD" transform="translate(0,0)"/>
<path d="M0 0 C46.51383876 -2.01620454 91.1501418 14.39217574 126.55761719 44.12109375 C136.4705446 53.64591308 144.90473653 64.08254779 151.55761719 76.12109375 C152.17378906 77.219375 152.78996094 78.31765625 153.42480469 79.44921875 C159.68971111 91.22616731 164.71577992 104.90702523 164.68261719 118.37109375 C164.68519531 119.428125 164.68777344 120.48515625 164.69042969 121.57421875 C164.55761719 124.12109375 164.55761719 124.12109375 163.55761719 125.12109375 C162.17601604 125.21387705 160.78973681 125.23856418 159.4050293 125.23461914 C158.52419174 125.23454361 157.64335419 125.23446808 156.73582458 125.23439026 C155.77853958 125.22922897 154.82125458 125.22406769 153.83496094 125.21875 C152.85974991 125.21733505 151.88453888 125.2159201 150.879776 125.21446228 C147.75152576 125.20884508 144.62334595 125.19628968 141.49511719 125.18359375 C139.37988384 125.17858097 137.26464938 125.17401768 135.14941406 125.16992188 C129.95212423 125.15887006 124.75487574 125.14211521 119.55761719 125.12109375 C118.44956554 122.90499045 118.258549 121.28093347 117.97949219 118.82421875 C115.02423191 94.60320175 106.48547205 74.36966322 87.55761719 58.12109375 C86.01499273 57.05926871 84.46052808 56.01452426 82.8972168 54.98339844 C82.0850621 54.4464032 81.27290741 53.90940796 80.43614197 53.35614014 C79.81622879 52.94857483 79.19631561 52.54100952 78.55761719 52.12109375 C78.57251849 59.58006446 78.61422897 67.03838461 78.68970776 74.49700356 C78.72392783 77.96081745 78.74907976 81.42419269 78.75317383 84.88818359 C78.75829011 88.87507241 78.80344868 92.86103408 78.85058594 96.84765625 C78.84468697 98.70422348 78.84468697 98.70422348 78.83866882 100.59829712 C78.79054473 107.72173955 78.79054473 107.72173955 82.0690918 113.76586914 C82.89030518 114.54309326 83.71151855 115.32031738 84.55761719 116.12109375 C85.08105469 119.078125 85.08105469 119.078125 84.93261719 121.93359375 C84.88234375 123.36638672 84.88234375 123.36638672 84.83105469 124.828125 C84.55761719 127.12109375 84.55761719 127.12109375 83.55761719 128.12109375 C80.97572273 128.2220085 78.42115219 128.26080874 75.83886719 128.25390625 C74.67925476 128.25534134 74.67925476 128.25534134 73.49621582 128.25680542 C71.85864175 128.25748716 70.221065 128.25563332 68.58349609 128.25146484 C66.06829798 128.24611646 63.55327846 128.25141001 61.03808594 128.2578125 C59.45084596 128.25715172 57.86360609 128.25587055 56.27636719 128.25390625 C55.51908325 128.25593048 54.76179932 128.25795471 53.98156738 128.26004028 C48.67256851 128.23604507 48.67256851 128.23604507 47.55761719 127.12109375 C47.28417969 124.57421875 47.28417969 124.57421875 47.18261719 121.37109375 C47.13363281 120.324375 47.08464844 119.27765625 47.03417969 118.19921875 C47.55761719 115.12109375 47.55761719 115.12109375 50.05102539 113.18920898 C53.91220532 108.46305254 53.25510542 103.88053019 53.18652344 97.953125 C53.19014137 96.1681385 53.19014137 96.1681385 53.1938324 94.34709167 C53.19285349 91.82958648 53.17944968 89.31205989 53.15454102 86.79467773 C53.12039341 82.96457597 53.13384282 79.1368028 53.15332031 75.30664062 C53.14641699 72.85545902 53.13674023 70.40428334 53.12402344 67.953125 C53.12898331 66.81736526 53.13394318 65.68160553 53.13905334 64.51142883 C53.00920477 55.6212399 51.62774584 47.77336548 45.05761719 41.37109375 C29.45555809 29.18198508 10.73963839 26.62496908 -8.44238281 28.12109375 C-12.66917315 28.68999434 -16.44142426 29.66016283 -20.44238281 31.12109375 C-21.5909375 31.52328125 -22.73949219 31.92546875 -23.92285156 32.33984375 C-33.00866182 35.84562263 -41.68444596 40.35101096 -46.03955078 49.46264648 C-48.118944 55.24872013 -47.89098079 61.11402068 -47.87597656 67.1953125 C-47.88121841 68.43730911 -47.88646027 69.67930573 -47.89186096 70.9589386 C-47.8998941 74.24010939 -47.89285127 77.52085746 -47.88153076 80.80200195 C-47.8798803 82.81165473 -47.89190421 84.82074614 -47.90893555 86.83032227 C-47.93957281 90.70225473 -47.94302388 94.57327844 -47.93847656 98.4453125 C-47.94971054 99.64121506 -47.96094452 100.83711761 -47.97251892 102.06925964 C-47.92046103 108.25665986 -47.82923107 111.47413221 -43.44238281 116.12109375 C-43.05175781 119.234375 -43.05175781 119.234375 -43.19238281 122.43359375 C-43.22847656 123.50222656 -43.26457031 124.57085937 -43.30175781 125.671875 C-43.34816406 126.48011719 -43.39457031 127.28835938 -43.44238281 128.12109375 C-48.55102177 128.14574385 -53.6596264 128.16392982 -58.76831055 128.17602539 C-60.50757449 128.18106579 -62.24683417 128.18789805 -63.98608398 128.1965332 C-66.48064218 128.20861167 -68.97514455 128.21432483 -71.46972656 128.21875 C-72.25202133 128.22391129 -73.0343161 128.22907257 -73.84031677 128.23439026 C-75.70805396 128.23458601 -77.57567485 128.18309069 -79.44238281 128.12109375 C-81.15278062 126.41069594 -80.73539824 124.27015419 -80.81738281 121.93359375 C-80.86636719 120.99128906 -80.91535156 120.04898438 -80.96582031 119.078125 C-80.44238281 116.12109375 -80.44238281 116.12109375 -77.95385742 113.75219727 C-73.88050396 109.01300195 -74.71616709 102.99757675 -74.73535156 97.06640625 C-74.7126696 95.18137894 -74.7126696 95.18137894 -74.68952942 93.25827026 C-74.65390871 89.93380035 -74.63949764 86.61063266 -74.63549805 83.28607178 C-74.62614222 79.88716134 -74.5887137 76.4885697 -74.55371094 73.08984375 C-74.490831 66.43358662 -74.45591876 59.77762427 -74.44238281 53.12109375 C-76.20332094 54.37321999 -77.96038615 55.63079401 -79.71582031 56.890625 C-80.69470215 57.59034424 -81.67358398 58.29006348 -82.68212891 59.01098633 C-97.04897601 69.99388563 -105.75308024 88.15685207 -110.44238281 105.12109375 C-110.72855469 106.08015625 -110.72855469 106.08015625 -111.02050781 107.05859375 C-111.88915822 111.30532907 -111.90972538 115.68508572 -112.16113281 120.00390625 C-112.44238281 123.12109375 -112.44238281 123.12109375 -113.44238281 125.12109375 C-128.29238281 125.12109375 -143.14238281 125.12109375 -158.44238281 125.12109375 C-158.44238281 93.80005092 -144.19664185 68.47711102 -122.94238281 46.24609375 C-89.56842771 14.38090696 -44.96709733 2.22947624 0 0 Z " fill="#10356D" transform="translate(207.4423828125,208.87890625)"/>
<path d="M0 0 C1.86627844 0.74745297 3.73255976 1.4948988 5.59896278 2.24204063 C7.57387876 3.03447167 9.54695825 3.8313301 11.51965332 4.62927246 C15.53214733 6.25111318 19.55176622 7.85468406 23.57324219 9.45410156 C31.16153969 12.47343317 38.74453455 15.50588907 46.32647705 18.5411377 C48.43814111 19.38619551 50.55007503 20.23057512 52.66210938 21.07470703 C60.74393724 24.30486832 68.82333282 27.54096916 76.89831543 30.78820801 C79.28451915 31.74729413 81.67129402 32.7049608 84.05871582 33.66101074 C87.18707181 34.91471624 90.31269952 36.1749639 93.4375 37.4375 C94.34668182 37.8005423 95.25586365 38.16358459 96.19259644 38.53762817 C97.01220856 38.87051849 97.83182068 39.20340881 98.67626953 39.54638672 C99.38300812 39.83101776 100.0897467 40.1156488 100.81790161 40.40890503 C102.5546875 41.2578125 102.5546875 41.2578125 104.5546875 43.2578125 C104.6640625 45.6953125 104.6640625 45.6953125 103.5546875 48.2578125 C100.91508131 49.51132412 98.57328374 50.41943477 95.8046875 51.2578125 C90.2700283 52.96997326 86.10789513 54.37554247 82.5546875 59.2578125 C81.91524976 62.1131236 81.6428376 64.37471669 81.5546875 67.2578125 C81.50731445 68.21075195 81.45994141 69.16369141 81.41113281 70.14550781 C81.27731735 73.39229358 81.22163719 76.63361857 81.1796875 79.8828125 C81.14230469 80.98882812 81.10492188 82.09484375 81.06640625 83.234375 C80.84718453 89.79160606 80.84718453 89.79160606 84.05859375 95.2578125 C87.96528265 99.95317569 87.09294317 104.73537976 86.8671875 110.6328125 C86.83334961 112.30923828 86.83334961 112.30923828 86.79882812 114.01953125 C86.74013854 116.76620363 86.65046527 119.5121832 86.5546875 122.2578125 C80.6146875 122.2578125 74.6746875 122.2578125 68.5546875 122.2578125 C68.5546875 114.0078125 68.5546875 105.7578125 68.5546875 97.2578125 C69.8746875 96.5978125 71.1946875 95.9378125 72.5546875 95.2578125 C72.65376008 91.05865943 72.72624923 86.86012998 72.77441406 82.66015625 C72.79449732 81.23230129 72.82177002 79.80452825 72.85644531 78.37695312 C72.90511419 76.32140882 72.92768717 74.26695395 72.9453125 72.2109375 C72.96625977 70.97504883 72.98720703 69.73916016 73.00878906 68.46582031 C72.47707781 64.70953759 71.47800588 63.57421357 68.5546875 61.2578125 C62.38751593 63.53080163 56.22101674 65.80560818 50.05493164 68.08154297 C47.96751248 68.85179536 45.87995267 69.62166673 43.79223633 70.39111328 C27.6552909 76.33896356 11.54622264 82.35558012 -4.4765625 88.60546875 C-5.96600014 89.17746287 -7.45557134 89.74910938 -8.9453125 90.3203125 C-9.71488281 90.62646484 -10.48445312 90.93261719 -11.27734375 91.24804688 C-15.42125439 92.81901127 -18.11649792 93.78326802 -22.4453125 92.2578125 C-23.06067871 92.04310303 -23.67604492 91.82839355 -24.31005859 91.60717773 C-26.68291077 90.75666908 -29.0323137 89.85577531 -31.3828125 88.9453125 C-32.76255249 88.41526611 -32.76255249 88.41526611 -34.17016602 87.87451172 C-43.00745211 84.4619429 -51.79584125 80.92799969 -60.58520508 77.39428711 C-74.63729671 71.75214852 -88.74567902 66.25400699 -102.85327148 60.75244141 C-115.07602714 55.9833591 -127.27173765 51.15109595 -139.4453125 46.2578125 C-139.56347656 43.88720703 -139.56347656 43.88720703 -139.4453125 41.2578125 C-135.49557605 36.93268787 -130.06838574 35.33529363 -124.6953125 33.3828125 C-123.75429687 33.03259033 -122.81328125 32.68236816 -121.84375 32.3215332 C-115.71988166 30.05360669 -109.56440814 27.88056142 -103.39794922 25.73193359 C-96.83247118 23.42786716 -90.32548443 20.97636006 -83.8203125 18.5078125 C-82.63993408 18.06171631 -81.45955566 17.61562012 -80.2434082 17.15600586 C-72.99753931 14.40963839 -65.77603438 11.6064752 -58.56970215 8.75787354 C-54.32350863 7.08202875 -50.07191891 5.42011731 -45.81988525 3.75915527 C-43.70431688 2.92851807 -41.59127778 2.09140837 -39.480896 1.24768066 C-36.48950931 0.05240196 -33.49012404 -1.12033853 -30.48828125 -2.2890625 C-29.59349564 -2.65306152 -28.69871002 -3.01706055 -27.77680969 -3.39208984 C-17.27660581 -7.42141407 -9.99114229 -4.07530304 0 0 Z " fill="#10356D" transform="translate(229.4453125,71.7421875)"/>
<path d="M0 0 C60.70512821 0 60.70512821 0 68.91796875 7.828125 C75.44981292 14.88521025 76.47870553 21.07969077 76.30859375 30.5859375 C75.70899358 37.21948873 73.29290828 41.07401144 68.375 45.4375 C66.59965057 46.86010533 65.03627518 47.98186241 63 49 C64.19625 49.515625 65.3925 50.03125 66.625 50.5625 C72.10359125 53.31150944 75.76324805 57.04032464 78.1328125 62.7109375 C80.3331357 71.05630748 80.73336573 81.18679073 76.3125 88.8125 C71.63448774 95.25703438 65.1250705 99.99638415 57.21737671 101.54490662 C54.20926025 101.97040043 51.39610691 102.12064814 48.36181641 102.11352539 C47.26619385 102.11340454 46.17057129 102.11328369 45.04174805 102.11315918 C43.90648682 102.10804321 42.77122559 102.10292725 41.6015625 102.09765625 C40.01831177 102.09614563 40.01831177 102.09614563 38.40307617 102.09460449 C34.47703966 102.08939007 30.55101869 102.07542884 26.625 102.0625 C17.83875 102.041875 9.0525 102.02125 0 102 C0 68.34 0 34.68 0 0 Z " fill="#0F336B" transform="translate(658,162)"/>
<path d="M0 0 C3.56384976 2.07545327 6.08823095 4.27389015 8.3125 7.8125 C8.6425 5.1725 8.9725 2.5325 9.3125 -0.1875 C15.2525 -0.1875 21.1925 -0.1875 27.3125 -0.1875 C27.35790132 8.73211407 27.39450205 17.65164988 27.41612434 26.57135391 C27.42650821 30.71428004 27.44056729 34.85712219 27.46337891 39 C27.48530172 43.00708579 27.49710907 47.01409141 27.50225449 51.0212326 C27.50591569 52.54084279 27.51306375 54.06044919 27.52396011 55.58002472 C27.62745234 70.62769558 27.17458502 85.40544364 16.44140625 97.01953125 C6.08405214 105.74251389 -7.28094017 105.57867675 -20.07470703 105.04345703 C-28.92643159 104.26101156 -36.91130025 100.45933313 -43.6875 94.8125 C-42.12382643 91.29011953 -39.99254111 88.54126006 -37.5625 85.5625 C-36.83804688 84.67046875 -36.11359375 83.7784375 -35.3671875 82.859375 C-34.81289063 82.18390625 -34.25859375 81.5084375 -33.6875 80.8125 C-31.56229164 81.8580048 -29.47804054 82.93147009 -27.41796875 84.1015625 C-19.24290097 88.39629857 -10.32938504 89.77114485 -1.31640625 87.11328125 C3.4944037 84.66132005 6.38260922 80.60217234 8.0625 75.5625 C8.44875659 71.31367747 8.38699592 67.07532185 8.3125 62.8125 C7.9 63.21082031 7.4875 63.60914063 7.0625 64.01953125 C-0.72363653 71.16261632 -8.29196282 72.70685024 -18.63671875 72.28515625 C-26.64244676 71.60779204 -33.25941214 67.74429167 -38.6875 61.9375 C-47.20241271 51.07579428 -47.92418027 39.19241837 -46.6875 25.8125 C-44.41909535 15.72086566 -38.29113443 7.83232384 -29.96484375 1.859375 C-20.64000632 -3.51213297 -9.90591386 -4.58093808 0 0 Z " fill="#10346C" transform="translate(970.6875,190.1875)"/>
<path d="M0 0 C5.94 0 11.88 0 18 0 C18 33.99 18 67.98 18 103 C12.06 103 6.12 103 0 103 C-0.495 98.545 -0.495 98.545 -1 94 C-1.50789062 94.47050781 -2.01578125 94.94101563 -2.5390625 95.42578125 C-9.75165244 101.94952833 -15.89659274 105.39762044 -25.828125 105.2109375 C-35.00085904 104.32006045 -41.96145989 99.3869297 -48.1875 92.875 C-57.01473023 81.62935053 -57.53358814 68.74569337 -56 55 C-53.79242512 44.90219335 -47.60650015 36.97060917 -39.2421875 31.046875 C-31.65418079 26.7166525 -24.6202755 25.79501525 -16 27 C-9.63378945 28.75651649 -6.19011165 31.67490696 -1 36 C-0.67 24.12 -0.34 12.24 0 0 Z " fill="#10346C" transform="translate(893,161)"/>
<path d="M0 0 C3.80323644 2.69884836 7.77638938 5.83073009 10 10 C9.65814178 14.08476744 7.29701537 16.01130922 4.4375 18.75 C3.61121094 19.54921875 2.78492188 20.3484375 1.93359375 21.171875 C1.29550781 21.77515625 0.65742188 22.3784375 0 23 C-2.73065194 21.72294941 -4.61096556 20.50359048 -7 18.5625 C-13.69098573 13.69894478 -22.88673254 12.17492195 -31 13 C-34.92420862 14.16302151 -38.42545258 15.71030052 -41 19 C-42.56935594 22.13871188 -42.35201103 24.53855822 -42 28 C-38.07184273 33.14885953 -34.02275389 34.22013286 -28 35.5625 C-26.2925978 35.98156443 -24.58556659 36.40214321 -22.87890625 36.82421875 C-21.63004639 37.12465088 -21.63004639 37.12465088 -20.35595703 37.43115234 C-9.34761445 40.08912522 0.920702 43.17907622 8 52.625 C12.65910424 60.4872384 13.56909906 68.66722893 11.34765625 77.6328125 C7.4963702 87.12053008 1.09418631 92.62789534 -8.09375 96.8125 C-21.2201261 102.1759655 -35.93312071 101.0737566 -49.01171875 95.78125 C-55.53260529 92.50716471 -61.80770301 88.06779828 -66 82 C-66.08239195 78.84375463 -64.81695123 77.79348344 -62.71484375 75.421875 C-61.79832031 74.54015625 -60.88179688 73.6584375 -59.9375 72.75 C-59.01839844 71.85796875 -58.09929687 70.9659375 -57.15234375 70.046875 C-56.44207031 69.37140625 -55.73179687 68.6959375 -55 68 C-52.32991823 69.22846199 -50.84557734 70.15871218 -48.75 72.3125 C-41.60693729 79.29322038 -34.94082982 81.30481273 -25.13208008 81.31469727 C-19.68460887 81.21042468 -15.09235093 80.82326484 -11 77 C-8.64087019 73.25314678 -7.85730949 71.2128693 -8.375 66.8125 C-10.95536908 62.3464766 -14.86411689 60.64315643 -19.66015625 59.19897461 C-23.73549421 58.18592895 -27.83040502 57.27835181 -31.93164062 56.37695312 C-42.25326724 53.98097781 -52.54414594 50.35849893 -58.6875 41.25 C-63.3270831 33.38605255 -63.91120362 25.40761624 -61.9375 16.5625 C-59.39714914 7.93712267 -53.69237011 3.09303824 -46.40625 -1.7734375 C-33.64599498 -8.27785321 -11.9899906 -7.98637635 0 0 Z " fill="#10346C" transform="translate(438,166)"/>
<path d="M0 0 C6.74949264 1.12491544 6.74949264 1.12491544 9.91552734 2.39526367 C10.97856583 2.81656807 10.97856583 2.81656807 12.06307983 3.24638367 C12.81312286 3.55050674 13.56316589 3.85462982 14.3359375 4.16796875 C15.13295074 4.48526443 15.92996399 4.80256012 16.75112915 5.12947083 C19.29470027 6.14321159 21.83495622 7.16495716 24.375 8.1875 C38.61027679 13.89404918 38.61027679 13.89404918 52.9140625 19.42578125 C53.55959076 19.67345749 54.20511902 19.92113373 54.87020874 20.17631531 C64.80139703 23.90806112 72.97220244 23.89634167 82.8125 20.125 C84.56246264 19.48427294 86.31246504 18.84365449 88.0625 18.203125 C89.00609375 17.85185547 89.9496875 17.50058594 90.921875 17.13867188 C95.49136068 15.4483101 100.08000326 13.81265227 104.66870117 12.17529297 C107.0267932 11.33380565 109.3838037 10.48927877 111.73950195 9.64111328 C120.12434672 6.63035999 128.54205884 3.81931372 137 1 C137 12.22 137 23.44 137 35 C126.87331578 38.37556141 126.87331578 38.37556141 123.36083984 39.37866211 C122.56906342 39.60577377 121.77728699 39.83288544 120.96151733 40.06687927 C119.72373032 40.41855919 119.72373032 40.41855919 118.4609375 40.77734375 C117.57701324 41.02996475 116.69308899 41.28258575 115.78237915 41.54286194 C113.92208568 42.07404212 112.06151619 42.60425651 110.20068359 43.13354492 C107.40260524 43.92964584 104.60553755 44.72922024 101.80859375 45.52929688 C98.20349894 46.56018706 94.59486398 47.57712657 90.98339844 48.58544922 C87.88495499 49.45316998 84.80916495 50.36447191 81.74316406 51.34033203 C73.5011386 53.89724896 67.35161299 54.26971029 59 52 C57.90703613 51.72478516 56.81407227 51.44957031 55.68798828 51.16601562 C52.13118771 50.2418589 48.59720646 49.25520292 45.0625 48.25 C43.80211914 47.89655518 42.54173828 47.54311035 41.24316406 47.17895508 C37.49365941 46.12550696 33.74671538 45.06331874 30 44 C27.92067448 43.41500346 25.8412553 42.83033966 23.76171875 42.24609375 C21.92429994 41.72719672 20.08704804 41.20770813 18.25 40.6875 C17.43668213 40.45772461 16.62336426 40.22794922 15.78540039 39.99121094 C10.45997079 38.46822615 5.26572441 36.75524147 0 35 C0 23.45 0 11.9 0 0 Z " fill="#10346D" transform="translate(141,150)"/>
<path d="M0 0 C6.95823378 5.29023164 13.29362923 11.09005718 16.1875 19.5 C16.51105469 20.4178125 16.83460937 21.335625 17.16796875 22.28125 C19.4264429 29.66105285 19 34.68680403 19 43 C0.52 43 -17.96 43 -37 43 C-32.80762517 51.63570454 -32.80762517 51.63570454 -25.375 56.25 C-17.81990356 57.92891032 -10.84659244 57.87542968 -4 54 C-1.25789008 52.08927447 1.39376755 50.09175539 4 48 C7.2826932 49.49076434 9.93077441 51.38620321 12.75 53.625 C13.54921875 54.25664062 14.3484375 54.88828125 15.171875 55.5390625 C15.77515625 56.02117187 16.3784375 56.50328125 17 57 C14.42487214 63.26987653 8.19476447 67.36058139 2.328125 70.37109375 C-8.55819671 74.87407228 -21.46345323 76.00330459 -32.69921875 72.03125 C-42.20483476 67.77066829 -50.27905224 60.71884365 -54.5 51.0625 C-58.09497875 39.63560326 -57.41494606 25.68613249 -52 15 C-46.76651222 6.45417818 -39.40420967 0.15689815 -29.96484375 -3.3046875 C-20.11217645 -5.61532621 -8.86215016 -5.13431196 0 0 Z " fill="#11356D" transform="translate(1065,192)"/>
<path d="M0 0 C5.61 0 11.22 0 17 0 C18.71794901 1.71794901 18.16922129 3.99938413 18.20532227 6.34594727 C18.22526749 7.4870546 18.24521271 8.62816193 18.26576233 9.80384827 C18.28247482 11.0454924 18.29918732 12.28713654 18.31640625 13.56640625 C18.33718735 14.83016586 18.35796844 16.09392548 18.37937927 17.39598083 C18.43383714 20.76118633 18.4840428 24.12640173 18.53222656 27.49169922 C18.58239759 30.92355901 18.63810655 34.35532831 18.69335938 37.78710938 C18.80070191 44.52466761 18.90244325 51.26229336 19 58 C20.89922223 55.96024175 22.79596807 53.91826987 24.69140625 51.875 C25.22237915 51.30523437 25.75335205 50.73546875 26.30041504 50.1484375 C30.39540883 45.72854386 34.22567248 41.16369721 37.96484375 36.4375 C38.97224609 35.2309375 38.97224609 35.2309375 40 34 C40.68578125 33.07832031 41.3715625 32.15664062 42.078125 31.20703125 C46.4740794 27.88655767 50.46577765 28.45409708 55.8125 28.6875 C57.28106445 28.72133789 57.28106445 28.72133789 58.77929688 28.75585938 C61.18777455 28.81460273 63.59309078 28.89667871 66 29 C63.35621695 33.15104326 60.57311552 36.71361736 57.1875 40.3125 C53.29839373 44.50607101 49.74175648 48.79677176 46.375 53.41796875 C45.694375 54.20107422 45.694375 54.20107422 45 55 C44.34 55 43.68 55 43 55 C42.71125 55.5775 42.4225 56.155 42.125 56.75 C41.08333333 58.83333333 40.04166667 60.91666667 39 63 C45.26248521 71.22692162 51.53261279 79.44567119 57.9375 87.5625 C69 101.59361574 69 101.59361574 69 103 C49.79202267 104.78661426 49.79202267 104.78661426 43.88671875 101.0078125 C41.60397443 98.12829955 39.81893272 95.19164078 38 92 C36.29707909 89.63338685 34.49133571 87.35261267 32.6875 85.0625 C32.27790039 84.51956299 31.86830078 83.97662598 31.44628906 83.41723633 C29.15304855 80.37864538 26.76055763 77.62158219 24 75 C20.83021285 77.28002234 19.26253119 78.66810357 18.49365234 82.56884766 C18.28361619 85.65704348 18.20451717 88.7172667 18.1875 91.8125 C18.16236328 92.88693359 18.13722656 93.96136719 18.11132812 95.06835938 C18.05258395 97.71184737 18.02339856 100.3559629 18 103 C12.06 103 6.12 103 0 103 C0 69.01 0 35.02 0 0 Z " fill="#0F326B" transform="translate(463,161)"/>
<path d="M0 0 C5.94 0 11.88 0 18 0 C18.02505615 2.49860596 18.0501123 4.99721191 18.07592773 7.5715332 C18.1593245 15.81778191 18.24802034 24.06396744 18.33933926 32.31013203 C18.39455394 37.31081746 18.44797168 42.31150876 18.49731445 47.31225586 C18.54497937 52.13631012 18.59732306 56.96029281 18.65294075 61.7842617 C18.67335464 63.62667247 18.69206932 65.46910285 18.70907402 67.31154823 C18.73313934 69.88786551 18.76319108 72.46404745 18.79467773 75.0402832 C18.80331093 76.18827141 18.80331093 76.18827141 18.81211853 77.35945129 C18.85586803 80.49915326 18.99976381 82.99929144 20 86 C22.64 86.33 25.28 86.66 28 87 C28 91.95 28 96.9 28 102 C21.25933561 104.4888607 15.85656211 106.43675843 8.8125 103.8125 C3.22513055 100.2117508 1.47654769 96.35477262 0 90 C-0.25907279 86.97713641 -0.2537591 83.97600712 -0.22705078 80.94360352 C-0.22734283 80.06475998 -0.22763489 79.18591644 -0.22793579 78.28044128 C-0.2265505 75.3964933 -0.21102719 72.5128087 -0.1953125 69.62890625 C-0.19157952 67.6210901 -0.18873389 65.61327212 -0.18673706 63.60545349 C-0.17912305 58.33650632 -0.15949378 53.06767047 -0.1373291 47.79876709 C-0.11682251 42.41599025 -0.10772506 37.03319532 -0.09765625 31.65039062 C-0.07624573 21.10020379 -0.04108182 10.5501286 0 0 Z " fill="#10346C" transform="translate(618,161)"/>
<path d="M0 0 C5.94 0 11.88 0 18 0 C18.01458252 2.52889893 18.02916504 5.05779785 18.04418945 7.66333008 C18.09447774 16.00943848 18.1610624 24.35535917 18.23571491 32.70128345 C18.28048383 37.76250944 18.31972547 42.82365371 18.34643555 47.88500977 C18.37240359 52.76753536 18.41275955 57.64974758 18.46318626 62.5320797 C18.47989908 64.39679765 18.49138578 66.26156986 18.49761391 68.12635231 C18.50720719 70.73406623 18.53520819 73.34097042 18.56762695 75.94848633 C18.56547432 77.11050064 18.56547432 77.11050064 18.5632782 78.29598999 C18.61436679 81.19271316 18.68899435 83.45920139 20.15202332 86.0032196 C22.53018571 87.47473328 22.53018571 87.47473328 28 87 C28 91.95 28 96.9 28 102 C21.21709447 104.90695951 15.97758536 106.4533485 8.75 103.8125 C3.27450312 100.20364978 1.68713707 96.63964311 0.39899063 90.46403694 C-0.22713609 86.59728104 -0.26261142 82.80957515 -0.22705078 78.90014648 C-0.22734283 78.04051804 -0.22763489 77.18088959 -0.22793579 76.29521179 C-0.22655553 73.4870655 -0.21105646 70.67919301 -0.1953125 67.87109375 C-0.19157773 65.91097661 -0.18873295 63.95085759 -0.18673706 61.99073792 C-0.17913718 56.85662593 -0.15952031 51.72262889 -0.1373291 46.58856201 C-0.11679181 41.33965611 -0.10771855 36.09073146 -0.09765625 30.84179688 C-0.0762707 20.56113955 -0.04111859 10.28059736 0 0 Z " fill="#0E326A" transform="translate(578,161)"/>
<path d="M0 0 C-0.14235457 1.72945653 -0.28904382 3.45855654 -0.4375 5.1875 C-0.51871094 6.15042969 -0.59992187 7.11335937 -0.68359375 8.10546875 C-0.97666151 10.78649602 -1.42703754 13.3662986 -2 16 C-2.70125 15.95359375 -3.4025 15.9071875 -4.125 15.859375 C-10.4991078 15.61688177 -15.95619158 15.71752115 -21 20 C-24.48040008 24.93731175 -26.07875964 30.30688579 -26.20532227 36.30957031 C-26.22526749 37.15013977 -26.24521271 37.99070923 -26.26576233 38.85675049 C-26.29083107 40.20383087 -26.29083107 40.20383087 -26.31640625 41.578125 C-26.33718735 42.5046991 -26.35796844 43.43127319 -26.37937927 44.38592529 C-26.44466961 47.34054272 -26.50366431 50.29524768 -26.5625 53.25 C-26.60570473 55.25521732 -26.64931965 57.26042585 -26.69335938 59.265625 C-26.80032999 64.17699404 -26.90165518 69.08845097 -27 74 C-32.94 74 -38.88 74 -45 74 C-45 49.58 -45 25.16 -45 0 C-39.39 0 -33.78 0 -28 0 C-27.67 1.98 -27.34 3.96 -27 6 C-26.56429687 5.59007812 -26.12859375 5.18015625 -25.6796875 4.7578125 C-18.01394067 -2.1778632 -9.66336542 -4.27973301 0 0 Z " fill="#10336B" transform="translate(796,190)"/>
<path d="M0 0 C5.91418366 3.62450794 9.07130313 7.66630548 11.12109375 14.328125 C11.94242257 22.74674544 11.08595297 29.36585963 6.68359375 36.703125 C2.13980669 41.00130195 -2.40436678 43.11311489 -8.69140625 43.390625 C-14.34597523 43.13044545 -17.97411944 41.46774518 -22.09765625 37.46484375 C-27.61581185 31.2569187 -28.14347372 25.5279701 -28 17.4765625 C-27.35888178 11.28133591 -25.30968597 6.62093413 -20.9375 2.16796875 C-14.85500073 -2.39073112 -6.94453462 -2.9305317 0 0 Z " fill="#FBFCFD" transform="translate(882.62890625,206.109375)"/>
<path d="M0 0 C5.94 0 11.88 0 18 0 C18 24.75 18 49.5 18 75 C12.06 75 6.12 75 0 75 C0 50.25 0 25.5 0 0 Z " fill="#11386F" transform="translate(807,189)"/>
<path d="M0 0 C4.96393043 2.81134752 7.24443386 6.01632477 9.65234375 11.12109375 C10.14734375 12.11109375 10.14734375 12.11109375 10.65234375 13.12109375 C11.31597072 20.80176005 11.50114746 27.80567657 6.65234375 34.12109375 C2.28324685 38.90746395 -2.39673723 40.85282838 -8.78515625 41.43359375 C-14.69382257 40.91528969 -18.70980446 39.14709247 -22.66015625 34.74609375 C-27.66212162 28.74373531 -28.02467161 22.66346797 -27.34765625 15.12109375 C-25.86500644 8.25225518 -22.50293432 4.29973813 -16.72265625 0.30859375 C-11.19345436 -1.63686617 -5.57089908 -2.08561114 0 0 Z " fill="#FBFCFC" transform="translate(969.34765625,205.87890625)"/>
<path d="M0 0 C5.61 0 11.22 0 17 0 C17 24.42 17 48.84 17 74 C11.39 74 5.78 74 0 74 C0 49.58 0 25.16 0 0 Z " fill="#0F3168" transform="translate(542,190)"/>
<path d="M0 0 C4.14492657 -0.06921028 8.28781539 -0.12883443 12.43286133 -0.16479492 C13.84015734 -0.17979877 15.24740724 -0.20020863 16.65454102 -0.22631836 C18.68777907 -0.26307665 20.72039432 -0.27980984 22.75390625 -0.29296875 C23.97408447 -0.3086792 25.1942627 -0.32438965 26.45141602 -0.34057617 C31.83957253 0.1765534 35.71480431 1.58298937 39.4375 5.6875 C41.47536881 10.00778188 41.52774616 12.25028456 41 17 C39.52155431 20.91353272 38.37349322 21.80633685 34.625 23.75 C29.54248009 25.50259307 25.19734533 26.12412485 19.82421875 26.09765625 C18.25933716 26.09390991 18.25933716 26.09390991 16.6628418 26.09008789 C15.350979 26.08098389 14.03911621 26.07187988 12.6875 26.0625 C8.500625 26.041875 4.31375 26.02125 0 26 C0 17.42 0 8.84 0 0 Z " fill="#FAFBFC" transform="translate(677,221)"/>
<path d="M0 0 C4.54202541 -0.08100045 9.08260304 -0.14050969 13.625 -0.1875 C15.55279297 -0.22520508 15.55279297 -0.22520508 17.51953125 -0.26367188 C19.38544922 -0.27817383 19.38544922 -0.27817383 21.2890625 -0.29296875 C23.00150146 -0.31653442 23.00150146 -0.31653442 24.74853516 -0.34057617 C29.13087076 0.11845357 32.35927752 1.72544735 35.8203125 4.4140625 C38.13178709 7.52154158 38.08628223 11.23676746 38 15 C36.70497097 18.8850871 35.18655703 19.8783908 31.74609375 22.12109375 C25.77186346 25.02070038 19.49259457 24.42825497 13 24.25 C11.74832031 24.23195312 10.49664063 24.21390625 9.20703125 24.1953125 C6.13768806 24.1484523 3.06874205 24.07671855 0 24 C0 16.08 0 8.16 0 0 Z " fill="#F9FAFB" transform="translate(677,180)"/>
<path d="M0 0 C4.22241927 2.46307791 6.56682092 6.11464511 8.5625 10.5 C9.0575 12.48 9.0575 12.48 9.5625 14.5 C-2.9775 14.5 -15.5175 14.5 -28.4375 14.5 C-27.30585222 7.71011334 -27.30585222 7.71011334 -24.125 4.25 C-23.53074219 3.58484375 -22.93648437 2.9196875 -22.32421875 2.234375 C-16.40095695 -3.21061101 -7.18700585 -3.0938349 0 0 Z " fill="#FBFBFC" transform="translate(1056.4375,205.5)"/>
<path d="M0 0 C2.5224382 1.94588089 4.00590399 3.5599155 4.5234375 6.7734375 C4.59389369 10.90217052 4.5549057 13.09965089 2.3125 16.6875 C-1.22064057 20.01280877 -3.85911263 20.01824386 -8.55078125 19.98046875 C-11.8667278 19.55094199 -13.56237627 18.07825646 -15.8125 15.6875 C-17.54257568 12.22734865 -17.2960273 8.47077445 -16.8125 4.6875 C-12.95038176 -1.70497158 -6.83949799 -3.19176573 0 0 Z " fill="#10326B" transform="translate(556.8125,158.3125)"/>
<path d="M0 0 C5.53846154 3.07692308 5.53846154 3.07692308 7 6 C7.55512815 10.63213493 7.6364242 13.98172127 5.125 18 C1.82415719 21.10667558 -0.43883047 21.28015551 -4.96484375 21.22265625 C-7.90092462 20.90143435 -9.70920498 19.81916075 -12 18 C-14.45917586 14.3112362 -14.81591937 11.2815571 -14 7 C-10.48316664 0.90764183 -6.86939141 -0.57244928 0 0 Z " fill="#0F316A" transform="translate(819,157)"/>
<path d="M0 0 C5.94 0 11.88 0 18 0 C18 24.75 18 49.5 18 75 C12.06 75 6.12 75 0 75 C0 50.25 0 25.5 0 0 Z M1 2 C1 25.76 1 49.52 1 74 C5.95 74 10.9 74 16 74 C16 50.24 16 26.48 16 2 C11.05 2 6.1 2 1 2 Z " fill="#1D2D63" transform="translate(807,189)"/>
<path d="M0 0 C3.96 0 7.92 0 12 0 C11.34 0.66 10.68 1.32 10 2 C7.36 2 4.72 2 2 2 C2 31.7 2 61.4 2 92 C-0.60680025 89.39319975 -0.23599965 87.58931355 -0.24884033 84.03964233 C-0.24164978 83.20526642 -0.23445923 82.3708905 -0.22705078 81.51123047 C-0.22734283 80.63311707 -0.22763489 79.75500366 -0.22793579 78.85028076 C-0.22653912 75.93915019 -0.21096213 73.02827353 -0.1953125 70.1171875 C-0.19158357 68.10222514 -0.18873603 66.08726096 -0.18673706 64.07229614 C-0.17909118 58.76217668 -0.1594345 53.45216618 -0.1373291 48.14208984 C-0.11689121 42.72625197 -0.10773975 37.31039655 -0.09765625 31.89453125 C-0.07618951 21.26297289 -0.04204207 10.6314955 0 0 Z " fill="#021F5E" transform="translate(618,161)"/>
<path d="M0 0 C5.94 0 11.88 0 18 0 C17.67 0.66 17.34 1.32 17 2 C12.05 2 7.1 2 2 2 C2 13.88 2 25.76 2 38 C1.34 37.67 0.68 37.34 0 37 C0 24.79 0 12.58 0 0 Z " fill="#021F5E" transform="translate(893,161)"/>
<path d="M0 0 C0.99 0.33 1.98 0.66 3 1 C3 8.92 3 16.84 3 25 C-2.94 25 -8.88 25 -15 25 C-15 17.08 -15 9.16 -15 1 C-14.67 1 -14.34 1 -14 1 C-14 8.26 -14 15.52 -14 23 C-9.05 23 -4.1 23 1 23 C1.02687864 19.54161528 1.04677983 16.08343775 1.0625 12.625 C1.07087891 11.64015625 1.07925781 10.6553125 1.08789062 9.640625 C1.09111328 8.69960937 1.09433594 7.75859375 1.09765625 6.7890625 C1.10289307 5.91975098 1.10812988 5.05043945 1.11352539 4.15478516 C1.14122351 1.94950006 1.14122351 1.94950006 0 0 Z " fill="#0C1F5C" transform="translate(313,169)"/>
<path d="M0 0 C0.73283203 -0.01224609 1.46566406 -0.02449219 2.22070312 -0.03710938 C4.12776507 -0.04236299 6.03434886 0.06531728 7.9375 0.1875 C8.5975 0.8475 9.2575 1.5075 9.9375 2.1875 C8.31969843 3.80530157 6.48114482 3.41022147 4.24609375 3.50390625 C2.82973633 3.56674805 2.82973633 3.56674805 1.38476562 3.63085938 C-0.10506836 3.68983398 -0.10506836 3.68983398 -1.625 3.75 C-2.62208984 3.79318359 -3.61917969 3.83636719 -4.64648438 3.88085938 C-7.1183415 3.98730298 -9.5903031 4.08931928 -12.0625 4.1875 C-11.7325 3.1975 -11.4025 2.2075 -11.0625 1.1875 C-7.34504693 -0.05165102 -3.87126619 0.00342287 0 0 Z " fill="#1D3A71" transform="translate(1046.0625,187.8125)"/>
<path d="M0 0 C0.66 0 1.32 0 2 0 C2 2.64 2 5.28 2 8 C5.96 8 9.92 8 14 8 C14 8.33 14 8.66 14 9 C9.38 9.33 4.76 9.66 0 10 C0 6.7 0 3.4 0 0 Z " fill="#0E2763" transform="translate(49,324)"/>
<path d="M0 0 C0.33 0.66 0.66 1.32 1 2 C0.0625 4.125 0.0625 4.125 -1 6 C-1.66 6 -2.32 6 -3 6 C-3.66 7.98 -4.32 9.96 -5 12 C-5.33 11.01 -5.66 10.02 -6 9 C-4.78515625 6.73828125 -4.78515625 6.73828125 -3.0625 4.3125 C-2.49660156 3.50425781 -1.93070313 2.69601563 -1.34765625 1.86328125 C-0.90292969 1.24839844 -0.45820312 0.63351563 0 0 Z " fill="#0A1D5A" transform="translate(933,199)"/>
<path d="M0 0 C-3.95523655 2.75668002 -7.22423661 3.5317879 -12 4 C-8.81646865 0.10901724 -4.81837115 -1.60612372 0 0 Z " fill="#0E225D" transform="translate(112,105)"/>
<path d="M0 0 C0.66 0.33 1.32 0.66 2 1 C-0.77280706 4.08089673 -3.06326356 5.68775452 -7 7 C-4.78071806 4.09197539 -3.07030857 2.04687238 0 0 Z " fill="#09205B" transform="translate(98,244)"/>
</svg>
